<?xml version="1.0" standalone="no"?>
<!DOCTYPE svg PUBLIC "-//W3C//DTD SVG 20010904//EN"
 "http://www.w3.org/TR/2001/REC-SVG-20010904/DTD/svg10.dtd">
<svg version="1.0" xmlns="http://www.w3.org/2000/svg"
 width="258.000000pt" height="1280.000000pt" viewBox="0 0 258.000000 1280.000000"
 preserveAspectRatio="xMidYMid meet">
<metadata>
Created by potrace 1.16, written by Peter Selinger 2001-2019
</metadata>
<g transform="translate(0.000000,1280.000000) scale(0.100000,-0.100000)"
fill="#ad232e" stroke="none">
<path d="M1218 12771 l-33 -29 -3 -393 -3 -393 -234 -1008 -235 -1009 0 -472
0 -472 -136 -382 -137 -383 -59 0 c-55 0 -63 -3 -94 -34 l-34 -34 0 -341 0
-341 -73 0 c-80 0 -107 -12 -132 -60 -13 -25 -15 -183 -15 -1222 0 -927 3
-1198 13 -1217 23 -45 62 -65 137 -69 l70 -4 0 -2423 0 -2423 31 -31 31 -31
988 0 988 0 31 31 31 31 0 2423 0 2423 70 4 c75 4 114 24 137 69 10 19 13 290
13 1217 0 1039 -2 1197 -15 1222 -25 48 -52 60 -132 60 l-73 0 0 341 0 341
-34 34 c-31 31 -39 34 -94 34 l-59 0 -137 383 -136 382 0 472 0 473 -235 1009
-235 1009 0 376 c0 405 -1 415 -52 450 -13 9 -43 16 -70 16 -39 0 -54 -6 -80
-29z m241 -2037 c84 -361 156 -665 158 -675 5 -18 -7 -19 -317 -19 -310 0
-322 1 -317 19 2 10 74 314 158 675 84 361 156 656 159 656 3 0 75 -295 159
-656z m-277 -1143 c3 -206 3 -210 27 -235 49 -52 133 -52 182 0 24 25 24 29
27 235 l3 209 115 0 114 0 0 -365 0 -365 -350 0 -350 0 0 365 0 365 114 0 115
0 3 -209z m614 -1055 c57 -159 104 -293 104 -298 0 -4 -270 -8 -600 -8 -330 0
-600 4 -600 8 0 7 165 473 201 570 l9 22 391 -2 392 -3 103 -289z m314 -801
l0 -255 -79 0 -79 0 -4 118 c-4 127 -16 159 -64 180 -32 15 -86 15 -119 0 -45
-20 -55 -55 -55 -183 l0 -115 -145 0 -145 0 0 110 c0 155 -27 200 -120 200
-93 0 -120 -45 -120 -200 l0 -110 -139 0 -139 0 -4 118 c-4 127 -16 159 -64
180 -32 15 -86 15 -119 0 -45 -20 -55 -55 -55 -183 l0 -115 -85 0 -85 0 0 255
0 255 810 0 810 0 0 -255z m220 -1540 l0 -1045 -1030 0 -1030 0 0 1045 0 1045
1030 0 1030 0 0 -1045z m-220 -2040 l0 -755 -110 0 -110 0 0 605 c0 669 2 646
-63 685 -38 24 -66 25 -112 6 -67 -28 -65 -8 -65 -686 l0 -610 -115 0 -115 0
-2 620 -3 620 -33 32 c-28 28 -39 33 -82 33 -43 0 -54 -5 -82 -33 l-33 -32 -3
-620 -2 -620 -115 0 -115 0 0 610 c0 678 2 658 -65 686 -47 19 -74 18 -113 -6
-63 -39 -62 -28 -62 -690 l0 -600 -110 0 -110 0 0 755 0 755 810 0 810 0 0
-755z m-1400 -1710 l0 -715 -110 0 -110 0 0 715 0 715 110 0 110 0 0 -715z
m470 0 l0 -715 -115 0 -115 0 0 715 0 715 115 0 115 0 0 -715z m470 0 l0 -715
-115 0 -115 0 0 715 0 715 115 0 115 0 0 -715z m460 0 l0 -715 -110 0 -110 0
0 715 0 715 110 0 110 0 0 -715z m-1400 -1585 l0 -630 -110 0 -110 0 0 630 0
630 110 0 110 0 0 -630z m470 0 l0 -630 -115 0 -115 0 0 630 0 630 115 0 115
0 0 -630z m470 0 l0 -630 -115 0 -115 0 0 630 0 630 115 0 115 0 0 -630z m460
0 l0 -630 -110 0 -110 0 0 630 0 630 110 0 110 0 0 -630z"/>
<path d="M1178 7030 c-191 -30 -359 -119 -492 -260 -199 -212 -273 -522 -191
-803 45 -156 113 -265 237 -382 108 -102 214 -160 369 -202 89 -24 309 -24
398 0 155 42 261 100 369 202 167 157 255 343 269 565 28 469 -331 865 -802
885 -55 2 -126 0 -157 -5z m237 -245 c178 -37 336 -159 415 -317 66 -136 84
-257 55 -392 -46 -217 -223 -400 -440 -456 -146 -37 -301 -17 -434 57 -181
100 -311 316 -311 518 0 218 137 438 332 535 135 66 250 83 383 55z"/>
<path d="M1238 6594 c-51 -27 -58 -56 -58 -249 0 -265 0 -265 265 -265 197 0
222 6 250 66 21 44 19 75 -8 115 -33 50 -60 59 -169 59 l-98 0 0 100 c0 71 -5
110 -15 130 -28 55 -109 76 -167 44z"/>
</g>
</svg>
